HIERARCHY
ROOT Hips
{
	OFFSET 0.000000 0.000000 0.000000
	CHANNELS 6 Xposition Yposition Zposition Zrotation Yrotation Xrotation 
	JOINT LHipJoint
	{
		OFFSET 0.000000 0.000000 0.000000
		CHANNELS 3 Zrotation Yrotation Xrotation
		JOINT LeftUpLeg
		{
			OFFSET 1.363060 -1.794630 0.839290
			CHANNELS 3 Zrotation Yrotation Xrotation
			JOINT LeftLeg
			{
				OFFSET 2.448110 -6.726130 0.000000
				CHANNELS 3 Zrotation Yrotation Xrotation
				JOINT LeftFoot
				{
					OFFSET 2.562200 -7.039590 0.000000
					CHANNELS 3 Zrotation Yrotation Xrotation
					JOINT LeftToeBase
					{
						OFFSET 0.157640 -0.433110 2.322550
						CHANNELS 3 Zrotation Yrotation Xrotation
						End Site
						{
							OFFSET 0.000000 0.000000 0.000000
						}
					}
				}
			}
		}
	}
	JOINT RHipJoint
	{
		OFFSET 0.000000 0.000000 0.000000
		CHANNELS 3 Zrotation Yrotation Xrotation
		JOINT RightUpLeg
		{
			OFFSET -1.305520 -1.794630 0.839290
			CHANNELS 3 Zrotation Yrotation Xrotation
			JOINT RightLeg
			{
				OFFSET -2.542530 -6.985550 0.000000
				CHANNELS 3 Zrotation Yrotation Xrotation
				JOINT RightFoot
				{
					OFFSET -2.568260 -7.056230 0.000000
					CHANNELS 3 Zrotation Yrotation Xrotation
					JOINT RightToeBase
					{
						OFFSET -0.164730 -0.452590 2.363150
						CHANNELS 3 Zrotation Yrotation Xrotation
						End Site
						{
							OFFSET 0.000000 0.000000 0.000000
						}
					}
				}
			}
		}
	}
	JOINT LowerBack
	{
		OFFSET 0.000000 0.000000 0.000000
		CHANNELS 3 Zrotation Yrotation Xrotation
		JOINT Spine
		{
			OFFSET 0.028270 2.035590 -0.193380
			CHANNELS 3 Zrotation Yrotation Xrotation
			JOINT Spine1
			{
				OFFSET 0.056720 2.048850 -0.042750
				CHANNELS 3 Zrotation Yrotation Xrotation
				JOINT Neck
				{
					OFFSET 0.000000 0.000000 0.000000
					CHANNELS 3 Zrotation Yrotation Xrotation
					JOINT Neck1
					{
						OFFSET -0.054170 1.746240 0.172020
						CHANNELS 3 Zrotation Yrotation Xrotation
						JOINT Head
						{
							OFFSET 0.104070 1.761360 -0.123970
							CHANNELS 3 Zrotation Yrotation Xrotation
							End Site
							{
								OFFSET 0.000000 0.000000 0.000000
							}
						}
					}
				}
				JOINT LeftShoulder
				{
					OFFSET 0.000000 0.000000 0.000000
					CHANNELS 3 Zrotation Yrotation Xrotation
					JOINT LeftArm
					{
						OFFSET 3.362410 1.200890 -0.311210
						CHANNELS 3 Zrotation Yrotation Xrotation
						JOINT LeftForeArm
						{
							OFFSET 4.983000 -0.000000 -0.000000
							CHANNELS 3 Zrotation Yrotation Xrotation
							JOINT LeftHand
							{
								OFFSET 3.483560 -0.000000 -0.000000
								CHANNELS 3 Zrotation Yrotation Xrotation
								JOINT LeftFingerBase
								{
									OFFSET 0.000000 0.000000 0.000000
									CHANNELS 3 Zrotation Yrotation Xrotation
									JOINT LeftHandIndex1
									{
										OFFSET 0.715260 -0.000000 -0.000000
										CHANNELS 3 Zrotation Yrotation Xrotation
										End Site
										{
											OFFSET 0.000000 0.000000 0.000000
										}
									}
								}
								JOINT LThumb
								{
									OFFSET 0.000000 0.000000 0.000000
									CHANNELS 3 Zrotation Yrotation Xrotation
									End Site
									{
										OFFSET 0.000000 0.000000 0.000000
									}
								}
							}
						}
					}
				}
				JOINT RightShoulder
				{
					OFFSET 0.000000 0.000000 0.000000
					CHANNELS 3 Zrotation Yrotation Xrotation
					JOINT RightArm
					{
						OFFSET -3.136600 1.374050 -0.404650
						CHANNELS 3 Zrotation Yrotation Xrotation
						JOINT RightForeArm
						{
							OFFSET -5.241900 -0.000000 -0.000000
							CHANNELS 3 Zrotation Yrotation Xrotation
							JOINT RightHand
							{
								OFFSET -3.444170 -0.000000 -0.000000
								CHANNELS 3 Zrotation Yrotation Xrotation
								JOINT RightFingerBase
								{
									OFFSET 0.000000 0.000000 0.000000
									CHANNELS 3 Zrotation Yrotation Xrotation
									JOINT RightHandIndex1
									{
										OFFSET -0.622530 -0.000000 -0.000000
										CHANNELS 3 Zrotation Yrotation Xrotation
										End Site
										{
											OFFSET 0.000000 0.000000 0.000000
										}
									}
								}
								JOINT RThumb
								{
									OFFSET 0.000000 0.000000 0.000000
									CHANNELS 3 Zrotation Yrotation Xrotation
									End Site
									{
										OFFSET 0.000000 0.000000 0.000000
									}
								}
							}
						}
					}
				}
			}
		}
	}
}
MOTION
Frames: 7
Frame Time: 0.008333
-10.924467 18.046173 6.453662 -177.994646 -73.828741 -176.124674 -3.382441 -2.011065 -0.611532 -18.510818 -2.465850 -12.611902 -0.027063 7.529937 19.512242 -0.093660 2.947791 2.050265 0.141500 2.424600 6.680500 0.982959 2.066054 -2.650161 12.593300 6.233178 -32.045545 -8.541712 -17.341444 54.397035 2.996335 -17.030981 6.151167 -0.114400 -2.181000 6.006100 1.065062 -3.400393 5.276562 2.268243 -4.287112 -4.151418 7.474738 -2.313223 0.450857 -1.765151 1.849287 -15.347117 3.034351 2.329528 7.618564 1.286000 1.084200 7.075400 5.467459 3.838465 0.049798 -92.983805 -29.196684 81.598658 48.096483 -57.581477 -20.483960 1.617658 0.724789 52.025233 46.095350 18.900349 16.228600 -7.125000 0.000000 0.000000 18.666700 51.993300 3.309300 -2.469904 -4.480944 -1.672869 81.032475 6.568259 38.584026 -78.731313 61.726941 -52.693122 -0.137591 -0.101257 -37.500028 -11.725219 -51.951269 9.151600 7.125000 0.000000 0.000000 63.318000 -75.231500 -49.010200 
-11.056664 18.048190 6.431780 -178.230591 -74.192165 -175.762127 -3.398437 -1.994983 -0.579312 -18.687460 -2.549909 -12.124787 -0.057828 7.448356 19.291104 -0.018544 2.609094 1.851673 0.140100 2.412700 6.647800 0.979623 2.081310 -2.682851 12.510075 6.166710 -32.483803 -8.106432 -17.066533 52.978972 3.013865 -16.942360 5.734163 -0.114600 -2.182200 6.009300 0.979445 -3.427169 5.247517 2.256698 -4.313372 -4.138651 7.464958 -2.338247 0.500848 -1.746859 1.839031 -15.339423 3.028457 2.311736 7.618067 1.272500 1.076800 7.070400 5.490316 3.805681 0.062424 -92.643167 -27.913270 81.280781 48.155232 -57.618734 -20.484729 1.609193 0.722076 52.116485 45.683865 18.452387 15.630400 -7.125000 0.000000 0.000000 18.108800 51.350800 2.913400 -2.480806 -4.464650 -1.677841 80.876434 6.007543 39.154697 -78.344357 61.698920 -52.351172 -0.141302 -0.099449 -37.418163 -12.434858 -52.429414 9.781300 7.125000 0.000000 0.000000 64.745100 -75.669400 -50.760500 
-11.187349 18.049097 6.408991 -178.466663 -74.589960 -175.380875 -3.414421 -1.980258 -0.549224 -18.847912 -2.651809 -11.664315 -0.086354 7.371922 19.085648 0.060380 2.252887 1.665120 0.138600 2.399300 6.610600 0.977506 2.096662 -2.713662 12.423709 6.078686 -32.903046 -7.649400 -16.760085 51.464313 3.026862 -16.845197 5.341227 -0.113200 -2.169100 5.973300 0.890242 -3.451571 5.214245 2.246371 -4.336908 -4.128824 7.460826 -2.361371 0.546215 -1.733768 1.816415 -15.340015 3.032080 2.278351 7.613593 1.262500 1.062500 7.066400 5.511440 3.771960 0.075313 -92.320133 -26.640487 80.903871 48.194060 -57.646326 -20.475552 1.600399 0.720867 52.164065 45.234122 17.982321 15.003600 -7.125000 0.000000 0.000000 17.518200 50.675300 2.516600 -2.491657 -4.446012 -1.683705 80.718303 5.515406 39.685422 -77.890198 61.658758 -51.955098 -0.145891 -0.097059 -37.257173 -13.015263 -52.857698 10.306500 7.125000 0.000000 0.000000 66.154600 -76.028500 -52.425700 
-11.317529 18.048997 6.385395 -178.694974 -75.003712 -175.000046 -3.429679 -1.966019 -0.520052 -18.991446 -2.754226 -11.215790 -0.113550 7.297537 18.886596 0.141737 1.885282 1.487652 0.136800 2.383400 6.566600 0.977742 2.112165 -2.742977 12.337620 5.982077 -33.285185 -7.174713 -16.422142 49.861534 3.035039 -16.740965 4.981742 -0.110200 -2.140600 5.894200 0.802048 -3.468291 5.179884 2.235891 -4.350215 -4.119470 7.458123 -2.379276 0.590598 -1.726473 1.781339 -15.346151 3.044017 2.229442 7.604800 1.255600 1.041400 7.062100 5.530517 3.737551 0.088665 -92.011695 -25.379538 80.468146 48.214998 -57.665479 -20.458841 1.591237 0.721434 52.161459 44.752240 17.505628 14.367100 -7.125000 0.000000 0.000000 16.906600 49.988500 2.132900 -2.502655 -4.425370 -1.689910 80.556926 5.088278 40.174927 -77.376376 61.606976 -51.511183 -0.151147 -0.094062 -37.021641 -13.427075 -53.231416 10.691400 7.125000 0.000000 0.000000 67.502300 -76.295300 -53.948000 
-11.447004 18.047988 6.360993 -178.920425 -75.431807 -174.613707 -3.444156 -1.952338 -0.491757 -19.119448 -2.855849 -10.779530 -0.139297 7.225725 18.695564 0.225258 1.506599 1.317939 0.134600 2.364900 6.515200 0.980252 2.127806 -2.770832 12.249766 5.878371 -33.631150 -6.688410 -16.054133 48.185430 3.039284 -16.632983 4.656605 -0.105900 -2.098300 5.777500 0.714433 -3.476141 5.145947 2.224789 -4.352023 -4.110676 7.455813 -2.391189 0.633275 -1.724514 1.733238 -15.357097 3.063789 2.164504 7.590990 1.251500 1.013100 7.057300 5.547424 3.702460 0.102401 -91.716590 -24.131485 79.969357 48.220440 -57.677250 -20.436237 1.581614 0.723657 52.110024 44.241498 17.022237 13.724400 -7.125000 0.000000 0.000000 16.278600 49.292300 1.765200 -2.513768 -4.402853 -1.696345 80.392399 4.724023 40.620231 -76.809857 61.543762 -51.025227 -0.156943 -0.090492 -36.717869 -13.651240 -53.552249 10.917800 7.125000 0.000000 0.000000 68.756600 -76.466000 -55.291300 
-11.576277 18.045871 6.335783 -179.146844 -75.872249 -174.222749 -3.457731 -1.939123 -0.464285 -19.232734 -2.955787 -10.353497 -0.163655 7.156848 18.513149 0.310818 1.117182 1.155255 0.132000 2.342200 6.452400 0.984987 2.143601 -2.797377 12.159259 5.769020 -33.940788 -6.196737 -15.657878 46.451330 3.041016 -16.526333 4.363821 -0.100200 -2.041100 5.619200 0.627292 -3.474712 5.112543 2.212926 -4.341659 -4.101780 7.453419 -2.396935 0.675550 -1.728555 1.672503 -15.373531 3.090667 2.083818 7.571816 1.250100 0.977600 7.052000 5.562014 3.666826 0.116480 -91.432007 -22.898673 79.406059 48.213320 -57.682834 -20.410249 1.571481 0.727616 52.006149 43.707186 16.537985 13.084600 -7.125000 0.000000 0.000000 15.641500 48.595600 1.419200 -2.524972 -4.378628 -1.702819 80.224046 4.422628 41.020065 -76.193869 61.468667 -50.499765 -0.163107 -0.086404 -36.357891 -13.655877 -53.827173 10.958000 7.125000 0.000000 0.000000 69.916600 -76.533700 -56.443600 
-11.704944 18.042644 6.309868 -179.382326 -76.328281 -173.815466 -3.470549 -1.926660 -0.437982 -19.333295 -3.058746 -9.941306 -0.185965 7.092410 18.343884 0.398325 0.716438 0.998363 0.129200 2.316900 6.382200 0.991417 2.159424 -2.822584 12.062441 5.653157 -34.220323 -5.706522 -15.236724 44.678076 3.041621 -16.426066 4.099487 -0.093300 -1.969700 5.422000 0.539154 -3.465219 5.080074 2.200012 -4.320472 -4.093368 7.450709 -2.397116 0.715802 -1.738737 1.599389 -15.394850 3.125136 1.988118 7.547248 1.251700 0.935500 7.046000 5.574052 3.630677 0.130631 -91.154446 -21.684012 78.777251 48.195591 -57.683321 -20.382724 1.560809 0.733642 51.845286 43.152530 16.064651 12.460100 -7.125000 0.000000 0.000000 15.000800 47.914400 1.101900 -2.536225 -4.352737 -1.709279 80.050958 4.182588 41.375544 -75.535977 61.382363 -49.941028 -0.169538 -0.081850 -35.960338 -13.443855 -54.050146 10.811900 7.125000 0.000000 0.000000 70.924500 -76.501700 -57.351500 
